<?xml version="1.0" encoding="UTF-8"?>
<svg viewBox="0 0 1024 1024" version="1.1" xmlns="http://www.w3.org/2000/svg" xmlns:xlink="http://www.w3.org/1999/xlink">
    <title>App Store@2x</title>
    <defs>
        <rect id="path-1" x="0" y="0" width="819" height="819" rx="136"></rect>
        <filter x="-14.5%" y="-10.4%" width="129.1%" height="129.1%" filterUnits="objectBoundingBox" id="filter-2">
            <feOffset dx="0" dy="34" in="SourceAlpha" result="shadowOffsetOuter1"></feOffset>
            <feGaussianBlur stdDeviation="34" in="shadowOffsetOuter1" result="shadowBlurOuter1"></feGaussianBlur>
            <feColorMatrix values="0 0 0 0 0   0 0 0 0 0   0 0 0 0 0  0 0 0 0.5 0" type="matrix" in="shadowBlurOuter1"></feColorMatrix>
        </filter>
    </defs>
    <g id="App-Store" stroke="none" stroke-width="1" fill="none" fill-rule="evenodd">
        <g id="Mac" transform="translate(103, 103)">
            <g id="Rectangle">
                <use fill="black" fill-opacity="1" filter="url(#filter-2)" xlink:href="#path-1"></use>
                <use fill="#FFFFFF" fill-rule="evenodd" xlink:href="#path-1"></use>
            </g>
            <g id="icons8-last_quarter" transform="translate(69, 69)" fill-rule="nonzero">
                <path d="M340,0 C152.223185,0 0,152.223185 0,340 C0,527.776815 152.223185,680 340,680 C527.776815,680 680,527.776815 680,340 C680,152.223185 527.776815,0 340,0 Z" id="Path" fill="#FFE082"></path>
                <path d="M161.5,340 C138.027898,340 119,359.027898 119,382.5 C119,405.972102 138.027898,425 161.5,425 C184.972102,425 204,405.972102 204,382.5 C204,359.027898 184.972102,340 161.5,340 Z M289,119 C251.444637,119 221,149.444637 221,187 C221,224.555363 251.444637,255 289,255 C326.555363,255 357,224.555363 357,187 C357,149.444637 326.555363,119 289,119 Z M314.5,425 C281.639057,425 255,451.639057 255,484.5 C255,517.360943 281.639057,544 314.5,544 C347.360943,544 374,517.360943 374,484.5 C374,451.639057 347.360943,425 314.5,425 L314.5,425 Z" id="Shape" fill="#FFCA28"></path>
                <path d="M314.5,246.5 C281.639,246.5 255,219.861 255,187 C255,154.139 281.639,127.5 314.5,127.5 C317.356,127.5 320.076,127.942 322.83,128.333 C312.817,122.553 301.393,119 289,119 C251.447,119 221,149.447 221,187 C221,224.553 251.447,255 289,255 C301.393,255 312.817,251.447 322.83,245.667 C320.076,246.058 317.356,246.5 314.5,246.5 Z M153,382.5 C153,365.092 163.506,350.149 178.5,343.587 C173.281,341.309 167.552,340 161.5,340 C138.023,340 119,359.023 119,382.5 C119,405.977 138.023,425 161.5,425 C167.552,425 173.281,423.691 178.5,421.413 C163.506,414.834 153,399.908 153,382.5 Z M289,484.5 C289,457.589 306.986,435.132 331.5,427.754 C326.094,426.122 320.45,425 314.5,425 C281.639,425 255,451.639 255,484.5 C255,517.361 281.639,544 314.5,544 C320.45,544 326.094,542.878 331.5,541.246 C306.986,533.868 289,511.411 289,484.5 Z" id="Shape" fill="#E5B223"></path>
                <path d="M340,0 L340,680 C527.765,680 680,527.765 680,340 C680,152.235 527.765,0 340,0 Z" id="Path" fill="#5E35B1"></path>
                <path d="M527,467.5 C527,484.908 516.494,499.851 501.5,506.413 C506.719,508.691 512.448,510 518.5,510 C541.977,510 561,490.977 561,467.5 C561,444.023 541.977,425 518.5,425 C512.448,425 506.719,426.309 501.5,428.587 C516.494,435.166 527,450.092 527,467.5 Z" id="Path" fill="#9575CD"></path>
            </g>
        </g>
    </g>
</svg>